<svg width="24" height="24" viewBox="0 0 24 24" fill="none" xmlns="http://www.w3.org/2000/svg">
<path d="M11.0625 12C11.0625 12.2486 11.1613 12.4871 11.3371 12.6629C11.5129 12.8387 11.7514 12.9375 12 12.9375C12.2486 12.9375 12.4871 12.8387 12.6629 12.6629C12.8387 12.4871 12.9375 12.2486 12.9375 12C12.9375 11.7514 12.8387 11.5129 12.6629 11.3371C12.4871 11.1613 12.2486 11.0625 12 11.0625C11.7514 11.0625 11.5129 11.1613 11.3371 11.3371C11.1613 11.5129 11.0625 11.7514 11.0625 12Z" stroke="black" stroke-width="1.5" stroke-linecap="round" stroke-linejoin="round"/>
<path d="M17.625 12C17.625 12.2486 17.7238 12.4871 17.8996 12.6629C18.0754 12.8387 18.3139 12.9375 18.5625 12.9375C18.8111 12.9375 19.0496 12.8387 19.2254 12.6629C19.4012 12.4871 19.5 12.2486 19.5 12C19.5 11.7514 19.4012 11.5129 19.2254 11.3371C19.0496 11.1613 18.8111 11.0625 18.5625 11.0625C18.3139 11.0625 18.0754 11.1613 17.8996 11.3371C17.7238 11.5129 17.625 11.7514 17.625 12Z" stroke="black" stroke-width="1.5" stroke-linecap="round" stroke-linejoin="round"/>
<path d="M4.5 12C4.5 12.2486 4.59877 12.4871 4.77459 12.6629C4.9504 12.8387 5.18886 12.9375 5.4375 12.9375C5.68614 12.9375 5.9246 12.8387 6.10041 12.6629C6.27623 12.4871 6.375 12.2486 6.375 12C6.375 11.7514 6.27623 11.5129 6.10041 11.3371C5.9246 11.1613 5.68614 11.0625 5.4375 11.0625C5.18886 11.0625 4.9504 11.1613 4.77459 11.3371C4.59877 11.5129 4.5 11.7514 4.5 12Z" stroke="black" stroke-width="1.5" stroke-linecap="round" stroke-linejoin="round"/>
</svg>
