<svg width="24" height="24" viewBox="0 0 24 24" fill="none" xmlns="http://www.w3.org/2000/svg">
<path d="M20.5596 19.75C20.6195 18.3715 20.667 16.2748 20.667 13.083C20.667 9.05979 20.5384 6.52152 20.4355 5.13183C20.3496 3.96851 19.6282 2.83992 18.3223 2.53124L18.3213 2.53027L17.8633 2.43163C16.7102 2.20338 14.9496 1.99999 12.333 1.99999C9.71671 2.00001 7.95639 2.20366 6.80273 2.43261L6.34473 2.53124C5.03873 2.83926 4.31769 3.96804 4.23145 5.13085C4.12805 6.52087 4.00001 9.05978 4 13.083C4 15.4769 4.0259 17.2551 4.06445 18.5762L4.10645 19.751C4.14856 20.7138 4.56787 21.6119 5.44922 22.0205C6.30616 22.4177 7.26109 22.1918 8.04102 21.6797L11.373 19.4932C11.6582 19.306 11.9919 19.2061 12.333 19.206C12.6742 19.206 13.0087 19.306 13.2939 19.4932L16.626 21.6787C17.4058 22.1911 18.3607 22.4179 19.2178 22.0205C20.0991 21.6117 20.5176 20.7131 20.5596 19.75Z" fill="currentColor"/>
</svg>
