<svg width="24" height="24" viewBox="0 0 24 24" fill="none" xmlns="http://www.w3.org/2000/svg">
<path fill-rule="evenodd" clip-rule="evenodd" d="M12 1.39286C10.2459 1.39286 8.53925 1.55321 6.9191 1.7338C4.19499 2.03744 2.0077 4.22195 1.71554 6.9527C1.54305 8.56495 1.39285 10.2593 1.39285 12C1.39285 13.7408 1.54305 15.4351 1.71555 17.0473C2.0077 19.7781 4.19499 21.9625 6.9191 22.2661C8.53925 22.4469 10.2459 22.6071 12 22.6071C13.7541 22.6071 15.4607 22.4469 17.0809 22.2661C19.805 21.9625 21.9922 19.7781 22.2845 17.0473C22.4569 15.4351 22.6071 13.7408 22.6071 12C22.6071 10.2593 22.4569 8.56495 22.2845 6.9527C21.9922 4.22195 19.805 2.03744 17.0809 1.7338C15.4607 1.55321 13.7541 1.39286 12 1.39286ZM15.1993 11.5997C16.9912 11.5997 17.9989 10.5918 17.9989 8.80001C17.9989 7.00823 16.9912 6.00035 15.1993 6.00035C13.4075 6.00035 12.3997 7.00823 12.3997 8.80001C12.3997 10.5918 13.4075 11.5997 15.1993 11.5997ZM9.94315 12.59C12.6866 14.4575 15.0394 17.148 16.746 19.8889C15.1696 20.0636 13.5932 20.2074 12.0001 20.2074C10.3837 20.2074 8.78452 20.0595 7.185 19.8812C5.57438 19.7017 4.2736 18.3981 4.10178 16.7921C4.00843 15.9195 3.92442 15.046 3.86763 14.1691C4.43668 13.6862 5.05826 13.2523 5.90826 12.6607C7.09519 11.8348 8.6988 11.7429 9.94315 12.59Z" fill="#1A1A1A"/>
</svg>
