<svg width="24" height="24" viewBox="0 0 24 24" fill="none" xmlns="http://www.w3.org/2000/svg">
<path fill-rule="evenodd" clip-rule="evenodd" d="M17.9629 1.20508C19.2014 1.20516 20.275 1.55594 21.0381 2.31836C21.8011 3.08099 22.1513 4.15436 22.1514 5.3916C22.1513 6.62879 21.8008 7.70129 21.0381 8.46387C20.2752 9.22651 19.202 9.57715 17.9639 9.57715C16.7267 9.57714 15.6524 9.22729 14.8896 8.46484C14.51 8.08527 14.2328 7.62876 14.0498 7.11328C12.714 7.4899 11.9512 7.71089 11.2354 7.99121C10.6256 8.23 10.0445 8.51447 9.16992 8.99219C9.8893 9.75025 10.2226 10.7969 10.2227 12C10.2226 13.2031 9.8893 14.2498 9.16992 15.0078C10.0454 15.4855 10.6264 15.771 11.2363 16.0098C11.9524 16.2901 12.7165 16.507 14.0527 16.8838C14.2358 16.3699 14.5129 15.9148 14.8916 15.5361C15.6543 14.7735 16.7274 14.4229 17.9648 14.4229C19.2023 14.423 20.2752 14.773 21.0381 15.5352C21.801 16.2977 22.1523 17.3714 22.1523 18.6094C22.1522 19.8465 21.8009 20.9191 21.0381 21.6816C20.2753 22.444 19.2026 22.7948 17.9648 22.7949C16.7276 22.7949 15.6542 22.4441 14.8916 21.6816C14.1291 20.9192 13.7785 19.8465 13.7783 18.6094C13.7783 18.5287 13.7792 18.4484 13.7822 18.3691C12.3758 17.9729 11.5056 17.7257 10.6895 17.4062C9.82727 17.0687 9.03333 16.6525 7.72754 15.9219C7.21513 16.0995 6.64581 16.1855 6.03613 16.1855C4.79809 16.1855 3.72478 15.8349 2.96191 15.0723C2.19924 14.3097 1.84872 13.2371 1.84863 12C1.84872 10.7628 2.1992 9.68933 2.96191 8.92676C3.72475 8.16445 4.79832 7.81351 6.03613 7.81348C6.64604 7.81351 7.21596 7.89939 7.72852 8.07715C9.03235 7.34704 9.82671 6.93222 10.6885 6.59473C11.5045 6.27518 12.3743 6.02773 13.7803 5.63184C13.7773 5.55259 13.7764 5.47229 13.7764 5.3916C13.7764 4.15426 14.1271 3.08095 14.8896 2.31836C15.6523 1.5558 16.7255 1.20509 17.9629 1.20508ZM17.9648 15.9229C17.0037 15.9229 16.3579 16.1909 15.9521 16.5967C15.5464 17.0024 15.2783 17.6483 15.2783 18.6094C15.2785 19.57 15.5465 20.2155 15.9521 20.6211C16.3579 21.0267 17.004 21.2949 17.9648 21.2949C18.9265 21.2948 19.5727 21.0267 19.9785 20.6211C20.3842 20.2155 20.6522 19.5699 20.6523 18.6094C20.6523 17.6479 20.3838 17.0021 19.9785 16.5967C19.5728 16.1913 18.9267 15.923 17.9648 15.9229ZM6.03613 9.31348C5.07452 9.31351 4.42835 9.58182 4.02246 9.9873C3.61667 10.393 3.34872 11.0391 3.34863 12C3.34872 12.9608 3.6167 13.6061 4.02246 14.0117C4.42833 14.4174 5.07418 14.6855 6.03613 14.6855C6.99702 14.6855 7.64314 14.4174 8.04883 14.0117C8.45417 13.606 8.72257 12.9604 8.72266 12C8.72257 11.0392 8.45443 10.393 8.04883 9.9873C7.64314 9.58163 6.997 9.31355 6.03613 9.31348ZM17.9629 2.70508C17.0019 2.70509 16.3559 2.97323 15.9502 3.37891C15.5445 3.78461 15.2764 4.43065 15.2764 5.3916C15.2765 6.35326 15.5448 6.99891 15.9502 7.4043C16.3558 7.80964 17.0017 8.07714 17.9629 8.07715C18.9248 8.07715 19.5716 7.809 19.9775 7.40332C20.3833 6.99766 20.6513 6.35237 20.6514 5.3916C20.6513 4.43065 20.3835 3.78456 19.9775 3.37891C19.5715 2.97339 18.9254 2.70516 17.9629 2.70508Z" fill="black"/>
</svg>
