<svg width="24" height="24" viewBox="0 0 24 24" fill="none" xmlns="http://www.w3.org/2000/svg">
<g clip-path="url(#clip0_136_9440)">
<path d="M12.66 1.22C12.4696 1.0772 12.238 1 12 1C11.762 1 11.5304 1.0772 11.34 1.22C10.8814 1.57068 10.4587 1.96606 10.0783 2.4003C9.503 3.0482 8.7 4.1405 8.7 5.4C8.7 6.27521 9.04768 7.11458 9.66655 7.73345C10.2854 8.35232 11.1248 8.7 12 8.7H5.4C4.52478 8.7 3.68542 9.04768 3.06655 9.66655C2.44768 10.2854 2.1 11.1248 2.1 12V14.2C2.1 15.5596 3.6521 16.3362 4.74 15.52L5.4737 14.97C5.6641 14.8272 5.89569 14.75 6.1337 14.75C6.37171 14.75 6.60329 14.8272 6.7937 14.97L7.0863 15.19C7.65752 15.6184 8.35228 15.85 9.0663 15.85C9.78032 15.85 10.4751 15.6184 11.0463 15.19L11.34 14.97C11.5304 14.8272 11.762 14.75 12 14.75C12.238 14.75 12.4696 14.8272 12.66 14.97L12.9537 15.19C13.5249 15.6184 14.2197 15.85 14.9337 15.85C15.6477 15.85 16.3425 15.6184 16.9137 15.19L17.2063 14.97C17.3967 14.8272 17.6283 14.75 17.8663 14.75C18.1043 14.75 18.3359 14.8272 18.5263 14.97L19.26 15.52C20.3479 16.3362 21.9 15.5596 21.9 14.2V12C21.9 11.1248 21.5523 10.2854 20.9335 9.66655C20.3146 9.04768 19.4752 8.7 18.6 8.7H12C12.4334 8.7 12.8625 8.61464 13.2629 8.4488C13.6632 8.28296 14.027 8.03989 14.3335 7.73345C14.6399 7.42702 14.883 7.06323 15.0488 6.66286C15.2146 6.26248 15.3 5.83336 15.3 5.4C15.3 4.1405 14.497 3.0482 13.9217 2.4003C13.5411 1.9713 13.1187 1.5643 12.66 1.22ZM3.2 17.9565V20.8C3.2 21.3835 3.43178 21.9431 3.84436 22.3556C4.04865 22.5599 4.29118 22.722 4.55809 22.8325C4.82501 22.9431 5.11109 23 5.4 23H18.6C19.1835 23 19.7431 22.7682 20.1556 22.3556C20.5682 21.9431 20.8 21.3835 20.8 20.8V17.9565C20.544 18.0493 20.2689 18.0762 19.9998 18.0349C19.7307 17.9936 19.4763 17.8853 19.26 17.72L18.5263 17.17C18.3359 17.0272 18.1043 16.95 17.8663 16.95C17.6283 16.95 17.3967 17.0272 17.2063 17.17L16.9137 17.39C16.3425 17.8184 15.6477 18.05 14.9337 18.05C14.2197 18.05 13.5249 17.8184 12.9537 17.39L12.66 17.17C12.4696 17.0272 12.238 16.95 12 16.95C11.762 16.95 11.5304 17.0272 11.34 17.17L11.0463 17.39C10.4751 17.8184 9.78032 18.05 9.0663 18.05C8.35228 18.05 7.65752 17.8184 7.0863 17.39L6.7937 17.17C6.60329 17.0272 6.37171 16.95 6.1337 16.95C5.89569 16.95 5.6641 17.0272 5.4737 17.17L4.74 17.72C4.52368 17.8853 4.26929 17.9936 4.0002 18.0349C3.73111 18.0762 3.45595 18.0493 3.2 17.9565Z" fill="black"/>
</g>
<defs>
<clipPath id="clip0_136_9440">
<rect width="24" height="24" fill="white"/>
</clipPath>
</defs>
</svg>
