<svg width="24" height="24" viewBox="0 0 24 24" fill="none" xmlns="http://www.w3.org/2000/svg">
<path d="M4.73391 4.88062C4.79578 4.04297 5.29312 3.33375 6.11016 3.14109C7.16625 2.89172 8.99906 2.625 12 2.625C15.0009 2.625 16.8337 2.89219 17.8898 3.14062C18.7069 3.33375 19.2042 4.04297 19.2661 4.88062C19.3692 6.27328 19.5 8.84391 19.5 12.9375C19.5 16.1934 19.4522 18.3216 19.3917 19.7114C19.3275 21.1866 18.1856 21.6848 16.9514 20.8739L13.5431 18.638C13.0847 18.3371 12.5483 18.1768 12 18.1768C11.4517 18.1768 10.9153 18.3371 10.4569 18.638L7.04906 20.8739C5.81438 21.6848 4.6725 21.1866 4.60828 19.7114C4.54734 18.3216 4.5 16.1934 4.5 12.9375C4.5 8.84391 4.63031 6.27328 4.73391 4.88062Z" stroke="#1A1A1A" stroke-width="1.5" stroke-linecap="round" stroke-linejoin="round"/>
</svg>
