<svg width="24" height="24" viewBox="0 0 24 24" fill="none" xmlns="http://www.w3.org/2000/svg">
<path fill-rule="evenodd" clip-rule="evenodd" d="M12 23C19.04 23 23 19.04 23 12C23 4.96 19.04 1 12 1C4.96 1 1 4.96 1 12C1 19.04 4.96 23 12 23ZM17.7147 19.1167C17.3146 18.3712 16.7694 17.7059 16.1049 17.1628C14.9464 16.2159 13.4963 15.6986 12.0001 15.6986C10.504 15.6986 9.05382 16.2159 7.8954 17.1628C7.23086 17.7059 6.68576 18.3712 6.28555 19.1167C7.59359 20.0569 9.45378 20.6429 12.0002 20.6429C14.5465 20.6429 16.4067 20.0569 17.7147 19.1167ZM15.7009 9.27953C15.7009 11.6488 14.3682 12.9815 11.9989 12.9815C9.6297 12.9815 8.29701 11.6488 8.29701 9.27953C8.29701 6.9103 9.6297 5.5776 11.9989 5.5776C14.3682 5.5776 15.7009 6.9103 15.7009 9.27953Z" fill="currentColor"/>
</svg>
