<svg width="24" height="24" viewBox="0 0 24 24" fill="none" xmlns="http://www.w3.org/2000/svg">
<path fill-rule="evenodd" clip-rule="evenodd" d="M10.4271 2.28912C11.4255 1.83201 12.5745 1.83201 13.5729 2.28912C17.1322 3.91868 19.7839 6.24983 21.0608 7.50731C21.7493 8.18533 22.1172 9.08943 22.1689 10.022C22.2325 11.1711 22.3125 13.0344 22.3125 15.1363C22.3125 16.6196 22.2726 17.9838 22.2269 19.0616C22.1535 20.789 20.7742 22.144 19.0518 22.2031C17.458 22.2577 15.0888 22.3126 12 22.3126C8.91115 22.3126 6.54198 22.2577 4.94823 22.2031C3.22583 22.144 1.84649 20.789 1.77313 19.0616C1.72736 17.9838 1.6875 16.6196 1.6875 15.1363C1.6875 13.0344 1.76754 11.1711 1.83114 10.022C1.88275 9.08943 2.25064 8.18533 2.93917 7.50731C4.21609 6.24983 6.86781 3.91868 10.4271 2.28912ZM8.33333 17.5001C7.82706 17.5001 7.41667 17.9105 7.41667 18.4167C7.41667 18.923 7.82706 19.3334 8.33333 19.3334H15.6667C16.1729 19.3334 16.5833 18.923 16.5833 18.4167C16.5833 17.9105 16.1729 17.5001 15.6667 17.5001H8.33333Z" fill="currentColor"/>
</svg>
