<svg width="24" height="24" viewBox="0 0 24 24" fill="none" xmlns="http://www.w3.org/2000/svg">
<g clip-path="url(#clip0_191_4945)">
<path fill-rule="evenodd" clip-rule="evenodd" d="M6.05131 0.655509C6.46347 1.18 6.76989 1.79365 6.94077 2.47603C7.62315 2.64691 8.2368 2.95332 8.7613 3.36549C9.63531 4.05234 9.63531 5.3645 8.7613 6.05135C8.23682 6.46351 7.62319 6.76993 6.94082 6.94082C6.76994 7.62319 6.46353 8.23686 6.05136 8.76134C5.36451 9.63535 4.05235 9.63535 3.3655 8.76134C2.95332 8.23686 2.64693 7.62319 2.47603 6.94082C1.79366 6.76993 1.18 6.46353 0.655508 6.05135C-0.218503 5.3645 -0.218503 4.05234 0.655508 3.36549C1.17999 2.95332 1.79361 2.64691 2.47599 2.47603C2.64687 1.79365 2.95327 1.18 3.36545 0.655509C4.0523 -0.218503 5.36446 -0.218503 6.05131 0.655509ZM17.9906 2.92725C17.0635 1.74746 15.2964 1.74746 14.3693 2.92725C13.6506 3.8417 13.1349 4.92988 12.8877 6.15133C11.6662 6.39854 10.5781 6.91432 9.66365 7.63295C8.48386 8.56009 8.48386 10.3272 9.66365 11.2543C10.5781 11.973 11.6663 12.4887 12.8877 12.7359C13.1349 13.9574 13.6507 15.0456 14.3693 15.96C15.2965 17.1398 17.0635 17.1398 17.9908 15.96C18.7094 15.0456 19.2251 13.9574 19.4723 12.7359C20.6937 12.4887 21.7819 11.973 22.6963 11.2543C23.8761 10.3272 23.8761 8.5601 22.6963 7.63295C21.7819 6.91432 20.6937 6.39854 19.4723 6.15133C19.2251 4.92986 18.7093 3.8417 17.9906 2.92725ZM7.77591 11.6238C6.95798 10.583 5.39763 10.583 4.5797 11.6238C4.00039 12.361 3.57948 13.233 3.36588 14.2087C2.39021 14.4223 1.51819 14.8432 0.781035 15.4225C-0.259786 16.2405 -0.259787 17.8008 0.781033 18.6187C1.51821 19.1981 2.39026 19.619 3.36595 19.8326C3.57955 20.8082 4.00046 21.6803 4.57977 22.4176C5.3977 23.4583 6.95805 23.4583 7.77598 22.4176C8.35529 21.6803 8.7762 20.8082 8.9898 19.8326C9.96549 19.619 10.8375 19.1981 11.5747 18.6187C12.6155 17.8008 12.6155 16.2405 11.5747 15.4225C10.8375 14.8432 9.96542 14.4223 8.98975 14.2087C8.77613 13.233 8.35522 12.361 7.77591 11.6238Z" fill="currentColor"/>
</g>
<defs>
<clipPath id="clip0_191_4945">
<rect width="24" height="24" fill="white"/>
</clipPath>
</defs>
</svg>
