<svg width="24" height="24" viewBox="0 0 24 24" fill="none" xmlns="http://www.w3.org/2000/svg">
<path fill-rule="evenodd" clip-rule="evenodd" d="M11.9113 1C7.88949 1 4.55145 4.10811 4.26491 8.11971C4.12849 10.0294 4.55614 12.0109 5.75867 13.59C7.18902 15.4682 8.64563 16.7581 10.9232 18.2746C11.5748 18.7085 12.4245 18.7085 13.0761 18.2746C15.3536 16.7581 16.8103 15.4682 18.2405 13.59C19.4431 12.0109 19.8708 10.0294 19.7343 8.11971C19.4479 4.10811 16.1098 1 12.088 1H11.9113ZM11.9999 10.75C13.5359 10.75 14.3999 9.886 14.3999 8.35C14.3999 6.814 13.5359 5.95 11.9999 5.95C10.4639 5.95 9.5999 6.814 9.5999 8.35C9.5999 9.886 10.4639 10.75 11.9999 10.75ZM9.81461 19.9394C7.81181 18.6058 6.34488 17.392 4.99293 15.8224C4.22358 15.9283 3.54456 16.4028 3.18443 17.1061L1.35912 20.6707C0.81395 21.7354 1.58714 23 2.78326 23H21.2165C22.418 23 23.1908 21.7254 22.6353 20.6603L20.774 17.0904C20.4162 16.4042 19.7538 15.9394 19.0025 15.8266C17.6516 17.3941 16.1854 18.607 14.1844 19.9394C12.8614 20.8202 11.1376 20.8202 9.81461 19.9394Z" fill="currentColor"/>
</svg>
