<svg width="98" height="20" viewBox="0 0 98 20" fill="none" xmlns="http://www.w3.org/2000/svg">
<path fill-rule="evenodd" clip-rule="evenodd" d="M30.5202 0.796403C31.9931 3.76793 33.3376 6.7994 34.5536 9.89082C35.7696 12.9737 36.8743 16.1422 37.8677 19.3963L34.8362 19.833C34.331 18.0861 33.7958 16.352 33.2306 14.6307L22.8902 15.0803C22.2736 16.6988 21.687 18.3387 21.1304 20L18.2145 19.6018C19.422 16.3648 20.7579 13.1792 22.2222 10.045C23.6951 6.91073 25.2623 3.80647 26.9236 0.732177L30.5202 0.796403ZM28.4522 2.86448C27.5872 4.50867 26.7694 6.16142 25.9987 7.82274C25.228 9.47549 24.4915 11.1496 23.7893 12.8452L32.4727 12.4727C31.8904 10.8285 31.2653 9.2143 30.5973 7.63006C29.9293 6.04581 29.2143 4.45729 28.4522 2.86448Z" fill="#1A1A1A"/>
<path d="M9.71098 0C10.4731 0 11.2096 0.0856348 11.9204 0.256904C12.6311 0.428174 13.3076 0.672233 13.9499 0.989082C15.243 1.62278 16.3434 2.51338 17.2511 3.66089L15.2858 5.26654C14.6179 4.43588 13.8043 3.77649 12.8452 3.28837C11.8947 2.80026 10.8499 2.5562 9.71098 2.5562C8.71762 2.5562 7.78848 2.75316 6.92357 3.14708C6.05866 3.53243 5.30079 4.05909 4.64997 4.72704C3.99914 5.39499 3.48533 6.17855 3.10854 7.07771C2.74031 7.96832 2.5562 8.92314 2.5562 9.9422C2.5562 10.9613 2.74031 11.9204 3.10854 12.8195C3.48533 13.7187 3.99914 14.5022 4.64997 15.1702C5.30079 15.8382 6.05866 16.3691 6.92357 16.763C7.78848 17.1484 8.71762 17.341 9.71098 17.341C10.3104 17.341 10.8885 17.2683 11.4451 17.1227C12.0017 16.9771 12.5284 16.7716 13.025 16.5061C14.0184 15.9752 14.8491 15.2344 15.517 14.2839L17.5979 15.7354C16.7245 17.0028 15.5984 18.009 14.2197 18.754C13.5431 19.1137 12.8238 19.392 12.0617 19.589C11.3081 19.7859 10.5245 19.8844 9.71098 19.8844C8.81182 19.8844 7.95119 19.7688 7.12909 19.5376C5.48491 19.0666 4.05481 18.2102 2.83879 16.9685C2.25648 16.3776 1.75123 15.7097 1.32306 14.9647C0.903447 14.2282 0.578035 13.4361 0.346821 12.5883C0.115607 11.7405 0 10.8585 0 9.9422C0 9.0259 0.115607 8.14387 0.346821 7.29608C0.809249 5.59195 1.63991 4.1276 2.83879 2.90302C3.42111 2.31214 4.07621 1.79405 4.80411 1.34875C5.52344 0.920574 6.29844 0.59088 7.12909 0.359666C7.95975 0.119889 8.82038 0 9.71098 0Z" fill="#1A1A1A"/>
<path d="M97.2383 3.00578L91.2396 3.23699L91.4194 19.4477L88.5806 19.499V3.33976L82.5048 3.58381L82.4534 0.873475L97.2897 0.552344L97.2383 3.00578Z" fill="#1A1A1A"/>
<path d="M56.352 1.05331L50.3276 7.9255L56.6089 18.9981L53.5902 19.4477L48.632 9.83943L43.8279 15.3372L43.9306 19.1522L41.0662 19.2036L40.7707 1.00193L43.4811 0.796403L43.7508 11.7405L53.4746 0.680796L56.352 1.05331Z" fill="#1A1A1A"/>
<path d="M73.1278 3.13423L61.7983 3.31407L61.8754 10.0193L69.5055 9.71098L69.5568 12.1773L61.9268 12.5498L61.9782 16.5703L73.0764 15.9409L73.1278 18.4714L59.5633 19.2036L59.2678 0.899165L73.2177 0.680796L73.1278 3.13423Z" fill="#1A1A1A"/>
<path d="M79.422 0.899165L79.589 18.6513H77.0071L76.5575 0.796403L79.422 0.899165Z" fill="#1A1A1A"/>
</svg>
